<svg width="24" height="25" viewBox="0 0 24 25" fill="none" xmlns="http://www.w3.org/2000/svg">
<g clip-path="url(#clip0_1_42)">
<path fill-rule="evenodd" clip-rule="evenodd" d="M21 6.5C20.9992 4.94118 19.8047 3.64268 18.2514 3.51206C16.698 3.38145 15.3035 4.46223 15.0424 5.99904C14.7813 7.53584 15.7407 9.01654 17.25 9.40625V10.25C17.25 11.0784 16.5784 11.75 15.75 11.75H8.25C7.42157 11.75 6.75 11.0784 6.75 10.25V9.40625C8.21273 9.02857 9.16644 7.62216 8.97609 6.1235C8.78573 4.62484 7.5107 3.50151 6 3.50151C4.4893 3.50151 3.21427 4.62484 3.02391 6.1235C2.83356 7.62216 3.78727 9.02857 5.25 9.40625V10.25C5.25 11.9069 6.59315 13.25 8.25 13.25H11.25V15.5938C9.78727 15.9714 8.83356 17.3778 9.02391 18.8765C9.21427 20.3752 10.4893 21.4985 12 21.4985C13.5107 21.4985 14.7857 20.3752 14.9761 18.8765C15.1664 17.3778 14.2127 15.9714 12.75 15.5938V13.25H15.75C17.4069 13.25 18.75 11.9069 18.75 10.25V9.40625C20.0739 9.06236 20.9987 7.86788 21 6.5V6.5ZM4.5 6.5C4.5 5.67157 5.17157 5 6 5C6.82843 5 7.5 5.67157 7.5 6.5C7.5 7.32843 6.82843 8 6 8C5.17157 8 4.5 7.32843 4.5 6.5V6.5ZM13.5 18.5C13.5 19.3284 12.8284 20 12 20C11.1716 20 10.5 19.3284 10.5 18.5C10.5 17.6716 11.1716 17 12 17C12.8284 17 13.5 17.6716 13.5 18.5V18.5ZM18 8C17.1716 8 16.5 7.32843 16.5 6.5C16.5 5.67157 17.1716 5 18 5C18.8284 5 19.5 5.67157 19.5 6.5C19.5 7.32843 18.8284 8 18 8V8Z" fill="#AB7DDE"/>
</g>
<defs>
<clipPath id="clip0_1_42">
<rect width="24" height="24" fill="white" transform="translate(0 0.5)"/>
</clipPath>
</defs>
</svg>
