<svg width="24" height="25" viewBox="0 0 24 25" fill="none" xmlns="http://www.w3.org/2000/svg">
<g clip-path="url(#clip0_1_37)">
<path fill-rule="evenodd" clip-rule="evenodd" d="M20.25 2.75H3.75C2.92157 2.75 2.25 3.42157 2.25 4.25V20.75C2.25 21.5784 2.92157 22.25 3.75 22.25H20.25C21.0784 22.25 21.75 21.5784 21.75 20.75V4.25C21.75 3.42157 21.0784 2.75 20.25 2.75V2.75ZM20.25 20.75H3.75V4.25H20.25V20.75V20.75ZM9 11V17C9 17.4142 8.66421 17.75 8.25 17.75C7.83579 17.75 7.5 17.4142 7.5 17V11C7.5 10.5858 7.83579 10.25 8.25 10.25C8.66421 10.25 9 10.5858 9 11V11ZM17.25 13.625V17C17.25 17.4142 16.9142 17.75 16.5 17.75C16.0858 17.75 15.75 17.4142 15.75 17V13.625C15.75 12.5895 14.9105 11.75 13.875 11.75C12.8395 11.75 12 12.5895 12 13.625V17C12 17.4142 11.6642 17.75 11.25 17.75C10.8358 17.75 10.5 17.4142 10.5 17V11C10.5019 10.6198 10.7881 10.3011 11.166 10.2585C11.5438 10.2159 11.8938 10.4628 11.9803 10.8331C13.0142 10.1317 14.351 10.0589 15.455 10.6438C16.559 11.2287 17.2496 12.3756 17.25 13.625V13.625ZM9.375 8.375C9.375 8.99632 8.87132 9.5 8.25 9.5C7.62868 9.5 7.125 8.99632 7.125 8.375C7.125 7.75368 7.62868 7.25 8.25 7.25C8.87132 7.25 9.375 7.75368 9.375 8.375V8.375Z" fill="#AB7DDE"/>
</g>
<defs>
<clipPath id="clip0_1_37">
<rect width="24" height="24" fill="white" transform="translate(0 0.5)"/>
</clipPath>
</defs>
</svg>
